<?xml version="1.0" encoding="utf-8"?>
<!-- Generator: Adobe Illustrator 25.0.0, SVG Export Plug-In . SVG Version: 6.00 Build 0)  -->
<svg version="1.1" id="Layer_1" xmlns="http://www.w3.org/2000/svg" xmlns:xlink="http://www.w3.org/1999/xlink" x="0px" y="0px"
	 viewBox="0 0 2000 2000" style="enable-background:new 0 0 2000 2000;" xml:space="preserve">
<style type="text/css">
	.st0{clip-path:url(#SVGID_2_);fill:url(#SVGID_3_);}
	.st1{fill:url(#SVGID_4_);}
	.st2{fill:url(#SVGID_5_);}
	.st3{fill:url(#SVGID_6_);}
</style>
<g>
	<g>
		<defs>
			<path id="SVGID_1_" d="M1204.98,332.84L989.63,208.51L774.28,332.84h-0.08L558.93,457.12v248.76v248.77l215.27,124.28h0.08
				l215.35,124.33l215.35-124.33h0.08l215.27-124.28V705.89V457.12l-215.27-124.29H1204.98z M841.96,761.49v13.02h-13.01v-13.02
				H841.96z M900.25,732.16v13.01h-13.02v-13.01H900.25z M900.25,753.77v13.02h-13.02v-13.02H900.25z M883.05,775.39v13.02h-13.02
				v-13.02H883.05z M900.03,800.1v13.01h-13.02V800.1H900.03z M941.06,742.08h-13.01v-13.02h13.01V742.08z M941.06,763.7h-13.01
				v-13.02h13.01V763.7z M954.08,716.82h-13.02V703.8h13.02V716.82z M1016.34,660.96h-13.02v-13.02h13.02V660.96z M995.77,640.93
				h-13.02v-13.01h13.02V640.93z M1016.34,682.58h-13.02v-13.01h13.02V682.58z M995.77,704.75h-13.02v-13.01h13.02V704.75z
				 M1016.34,725.16h-13.02v-13.02h13.02V725.16z M1016.34,784.17h-13.02v-13.02h13.02V784.17z M996.27,802.47h-13.02v-13.02h13.02
				V802.47z M841.96,794.69v13.02h-13.01v-13.02H841.96z M810.94,790.2c32.54,74.51,106.86,126.6,193.36,126.6
				c7.43,0,14.76-0.39,21.99-1.14V792.54v-55.75V616.22h-8.38v-7.28h-36.95v7.28h-8.38V755.2h-9.88v-61.03h-4.74v-19.08h-4.74
				v-16.21h-25.7l-0.33,16.21h-4.74v19.08h-4.74v106.77h-8.05V710.5h-29.45v9.27h-16.44v101.25h-10.03v-68.16l-33.53-19.08v47.21
				h-9.27V790.2z M1197.67,893.25c-0.88,0.33-1.76,0.65-2.64,0.97C1195.91,893.89,1196.79,893.58,1197.67,893.25z M820.64,626.7
				c39.44-63.84,109.13-102.72,184.17-102.72c75.04,0,144.73,38.87,184.18,102.72c-31-72.89-103.64-120.36-184.18-120.36
				C924.27,506.34,851.63,553.81,820.64,626.7z M1067.69,715.12V702.1h13.01v13.02H1067.69z M1059.09,693.5h-13.03v-13.02h13.03
				V693.5z M1050.92,737.84v-13.01h13.01v13.01H1050.92z M1112.03,751.07v-13.01h13.01v13.01H1112.03z M1132.76,774.9v-13.02h13.01
				v13.02H1132.76z M1116.22,793.65v-13.02h13.01v13.02H1116.22z M1067.57,784.17v-13.02h13.02v13.02H1067.57z M1045.96,784.17
				v-13.02h13.01v13.02H1045.96z M1174.45,800.27v-13.01h13.02v13.01H1174.45z M1067.57,809.76v-13.02h13.02v13.02H1067.57z
				 M1067.69,693.5v-13.02h13.01v13.02H1067.69z M1035.42,914.51c72.93-10.78,133.69-58.9,162.25-124.32v-10.05l-32.65-33.7v65.84
				h-12.24v-87.25h-21.85v-18.75h-31.86v43.68h-8.71v-82.73l-28.02-34.4l-26.91,33.97v69.99v55.75V914.51z M1210.66,619.37
				l36.58-36.6c-44.95-88.51-136.86-149.17-242.94-149.17c-150.38,0-272.28,121.91-272.28,272.28
				c0,150.38,121.91,272.28,272.28,272.28c106.08,0,197.99-60.65,242.94-149.18l-36.58-36.58
				c-33.83,80.58-113.48,137.18-206.35,137.18c-123.54,0-223.7-100.15-223.7-223.69c0-123.54,100.15-223.69,223.7-223.69
				C1097.18,482.19,1176.83,538.79,1210.66,619.37z M999.77,167.63l225.49,130.19l-0.02,0.03L1450.67,428l10.22,5.9v11.61v260.37
				v260.38v11.61l-10.22,5.9l-225.43,130.15l0.02,0.03l-225.49,130.19l-10.14,5.86l-10.14-5.86L754,1113.96l0.02-0.03L528.59,983.77
				l-10.22-5.9v-11.61V705.89V445.51V433.9l10.22-5.9l225.43-130.15l-0.02-0.03l225.49-130.19l10.14-5.86L999.77,167.63z"/>
		</defs>
		<clipPath id="SVGID_2_">
			<use xlink:href="#SVGID_1_"  style="overflow:visible;"/>
		</clipPath>
		<linearGradient id="SVGID_3_" gradientUnits="userSpaceOnUse" x1="989.6301" y1="161.774" x2="989.6301" y2="1250">
			<stop  offset="0" style="stop-color:#C58C3F"/>
			<stop  offset="0.5" style="stop-color:#FBFACC"/>
			<stop  offset="1" style="stop-color:#C58C3E"/>
		</linearGradient>
		<rect x="518.37" y="161.77" class="st0" width="942.53" height="1088.23"/>
	</g>
	<linearGradient id="SVGID_4_" gradientUnits="userSpaceOnUse" x1="285.3438" y1="1403.6606" x2="1763.4014" y2="1403.6606">
		<stop  offset="0" style="stop-color:#C58C3F"/>
		<stop  offset="0.5" style="stop-color:#FBFACC"/>
		<stop  offset="1" style="stop-color:#C58C3E"/>
	</linearGradient>
	<path class="st1" d="M313.64,1473.91c-18.86-18.78-28.3-42.3-28.3-70.58c0.09-27.66,9.54-50.92,28.36-69.79
		c18.82-18.86,42.15-28.3,69.98-28.3c28.1,0,52.21,8.75,72.35,26.26l-26.26,28.75c-13.39-10.5-28.75-15.76-46.09-15.76
		c-17.68,0.09-31.93,5.6-42.74,16.54c-10.81,10.94-16.22,24.95-16.22,42.02c0.09,18.3,5.56,32.83,16.41,43.59
		c10.85,10.77,25.12,16.15,42.8,16.15c17.68,0,32.96-5.21,45.82-15.62l26.26,28.76c-20.05,17.51-44.16,26.26-72.35,26.26
		C355.85,1502.12,332.5,1492.68,313.64,1473.91z M497.92,1502.2v-196.82l144.69-0.13v36.76h-105.3v42.02h78.91v36.63h-78.91v44.77
		h105.04v36.76H497.92z M682.27,1502.2v-196.95h13.13l123.42,123.42v-123.42h39.39v196.95h-14.44l-122.11-122.11v122.11H682.27z
		 M1059.76,1305.25v36.76h-65.65v160.19h-39.39v-160.19h-65.65v-36.76H1059.76z M1089.04,1305.12h39.26v197.08h-39.26V1305.12z
		 M1186.4,1473.91c-18.86-18.78-28.3-42.3-28.3-70.58c0.09-27.66,9.54-50.92,28.36-69.79c18.82-18.86,42.15-28.3,69.98-28.3
		c28.1,0,52.21,8.75,72.35,26.26l-26.26,28.75c-13.39-10.5-28.75-15.76-46.09-15.76c-17.68,0.09-31.93,5.6-42.74,16.54
		c-10.81,10.94-16.22,24.95-16.22,42.02c0.09,18.3,5.56,32.83,16.41,43.59c10.85,10.77,25.12,16.15,42.8,16.15
		c17.68,0,32.96-5.21,45.82-15.62l26.26,28.76c-20.05,17.51-44.16,26.26-72.35,26.26
		C1228.61,1502.12,1205.26,1492.68,1186.4,1473.91z M1389.46,1473.91c-18.82-18.86-28.23-42.26-28.23-70.18
		c0-28.01,9.41-51.42,28.23-70.25c18.82-18.82,42.23-28.23,70.25-28.23c28.01,0,51.42,9.41,70.25,28.23
		c18.82,18.82,28.23,42.24,28.23,70.25c0,28.01-9.41,51.43-28.23,70.25c-18.82,18.82-42.24,28.23-70.25,28.23
		C1431.69,1502.2,1408.27,1492.77,1389.46,1473.91z M1459.83,1465.44c17.42,0,31.6-5.91,42.54-17.73
		c10.94-11.82,16.41-26.48,16.41-43.99c0-17.51-5.47-32.17-16.41-43.99c-10.94-11.82-25.21-17.73-42.8-17.73
		c-17.42,0-31.6,5.91-42.54,17.73c-10.94,11.82-16.41,26.48-16.41,43.99c0,17.51,5.47,32.17,16.41,43.99
		C1427.97,1459.53,1442.24,1465.44,1459.83,1465.44z M1587.46,1502.2v-196.95h13.13l123.42,123.42v-123.42h39.39v196.95h-14.44
		l-122.11-122.11v122.11H1587.46z"/>
	<linearGradient id="SVGID_5_" gradientUnits="userSpaceOnUse" x1="208.6396" y1="1589.3994" x2="1866.3555" y2="1589.3994">
		<stop  offset="0" style="stop-color:#C58C3F"/>
		<stop  offset="0.5" style="stop-color:#FBFACC"/>
		<stop  offset="1" style="stop-color:#C58C3E"/>
	</linearGradient>
	<path class="st2" d="M243.35,1578.36c4.32,0.26,8.15,1.31,11.5,3.16c3.35,1.85,5.03,5.29,5.03,10.33c0,5.04-1.78,8.66-5.34,10.84
		c-3.56,2.18-7.58,3.28-12.05,3.28h-33.85v-5.23c3.38,0.05,5.47-0.39,6.28-1.33c0.81-0.94,1.21-3.04,1.21-6.32v-26.13
		c0-3.22-0.4-5.32-1.21-6.28c-0.81-0.96-2.9-1.44-6.28-1.44v-5.3h28.55h2.03c0.62,0.05,1.25,0.08,1.87,0.08s1.27,0.03,1.95,0.08
		c1.25,0.05,2.51,0.18,3.78,0.39c1.27,0.21,2.48,0.57,3.63,1.09c2.13,0.94,3.85,2.42,5.15,4.45c1.3,2.03,1.95,4.21,1.95,6.55
		c0,4.06-1.47,7.02-4.41,8.89c-2.94,1.87-6.2,2.86-9.79,2.96V1578.36z M239.02,1574.85c2.31-0.78,3.47-3.3,3.47-7.57
		c0-2.91-0.65-4.99-1.95-6.24c-1.3-1.25-3.38-1.87-6.24-1.87c-0.36,0-0.72,0-1.05,0c-0.34,0-0.66,0-0.97,0
		c-0.36,0-0.72,0.01-1.05,0.04c-0.34,0.03-0.69,0.04-1.05,0.04v16.69C233.76,1576,236.71,1575.63,239.02,1574.85z M230.17,1595.37
		c0,2.13,0.55,3.6,1.64,4.41c1.09,0.81,2.68,1.21,4.76,1.21c3.02,0,5.12-0.91,6.32-2.74c1.2-1.83,1.79-4.1,1.79-6.81
		c0-3.76-0.92-6.41-2.77-7.95c-1.85-1.54-4.56-2.31-8.15-2.31h-3.59V1595.37z M303.53,1606.21c-2.99,0.16-5.97,0.42-8.93,0.78
		c-0.16-0.47-0.27-0.91-0.35-1.33c-0.08-0.42-0.17-0.83-0.27-1.25c-0.05-0.42-0.1-0.84-0.16-1.29c-0.05-0.44-0.08-0.9-0.08-1.37
		c-1.77,2.18-3.74,3.72-5.93,4.6c-2.18,0.88-4.65,1.33-7.41,1.33c-4.32,0-7.45-1.08-9.4-3.24c-1.95-2.16-2.92-5.34-2.92-9.55v-13.96
		c0-1.61-0.31-2.72-0.94-3.31s-1.77-0.9-3.43-0.9v-4.84h17.24v20.26c0,0.21,0,0.38,0,0.51c0,0.13,0,0.25,0,0.35
		c0.05,1.77,0.44,3.39,1.17,4.85c0.73,1.46,2.16,2.19,4.29,2.19c2.44,0,4.24-0.81,5.38-2.42c1.14-1.61,1.72-3.54,1.72-5.77v-11.23
		c0-1.87-0.48-2.99-1.44-3.35c-0.96-0.36-2.3-0.55-4.02-0.55v-4.84h18.41v25.18c0,1.88,0.39,3.06,1.17,3.56
		c0.78,0.49,1.92,0.74,3.43,0.74h1.48v4.6C309.52,1605.97,306.52,1606.05,303.53,1606.21z M335.54,1570.64v26.52
		c0,1.87,0.35,3.03,1.05,3.47c0.7,0.44,1.94,0.69,3.71,0.74h1.09v4.6h-24.73v-4.6h0.94c0.1,0.05,0.21,0.08,0.31,0.08
		c0.1,0,0.21,0,0.31,0c0.1,0,0.23,0,0.39,0c0.16,0,0.29-0.03,0.39-0.08c0.88,0,1.7-0.16,2.46-0.47c0.75-0.31,1.13-1.02,1.13-2.11
		v-16.83c0-2.09-0.53-3.3-1.6-3.64c-1.07-0.34-2.51-0.51-4.33-0.51v-4.76c1.35,0.05,2.7,0.03,4.06-0.08c1.35-0.1,2.7-0.23,4.06-0.39
		c1.82-0.26,3.63-0.55,5.42-0.86c1.79-0.31,3.57-0.65,5.34-1.01V1570.64z M323.3,1562.06c-1.46-1.46-2.18-3.17-2.18-5.15
		c0-1.98,0.73-3.68,2.18-5.11c1.46-1.43,3.17-2.15,5.15-2.15c1.98,0,3.68,0.72,5.11,2.15c1.43,1.43,2.15,3.13,2.15,5.11
		c0,1.95-0.72,3.65-2.15,5.09c-1.43,1.44-3.13,2.16-5.11,2.16C326.47,1564.22,324.75,1563.52,323.3,1562.06z M369.32,1605.97h-23.95
		v-4.68c2.29,0.05,3.77-0.26,4.45-0.94c0.68-0.67,1.01-2.13,1.01-4.37v-0.47v-31.98v-1.4c0-0.05,0-0.1,0-0.16
		c0-0.83-0.14-1.61-0.43-2.34c-0.29-0.73-0.98-1.09-2.07-1.09h-3.28v-4.84c2.39,0.05,4.76-0.06,7.1-0.35
		c2.34-0.29,4.68-0.64,7.02-1.05c0.78-0.16,1.56-0.3,2.34-0.43c0.78-0.13,1.56-0.27,2.34-0.43v44c0,2.6,0.29,4.22,0.86,4.87
		c0.57,0.65,2.11,0.97,4.6,0.97V1605.97z M421.66,1605.97h-0.7l-8.97,0.23c-0.73,0.05-1.44,0.1-2.15,0.16s-1.42,0.1-2.15,0.16
		c-0.73,0.05-1.44,0.12-2.15,0.2c-0.7,0.08-1.42,0.17-2.15,0.27c-0.1-0.31-0.21-0.61-0.31-0.9c-0.1-0.29-0.21-0.61-0.31-0.98
		c-0.05-0.31-0.12-0.62-0.19-0.94c-0.08-0.31-0.14-0.62-0.19-0.94c-1.46,1.56-3.17,2.69-5.15,3.39c-1.98,0.7-4.03,1.05-6.16,1.05
		c-5.36,0-9.53-1.79-12.52-5.38c-2.99-3.59-4.48-7.98-4.48-13.18c0-4.89,1.36-9.24,4.09-13.07s6.77-5.73,12.13-5.73
		c2.24,0,4.38,0.33,6.44,0.98c2.05,0.65,3.94,1.68,5.66,3.08v-10.45v-1.48c0-0.05,0-0.1,0-0.16c0-0.94-0.14-1.79-0.43-2.57
		c-0.29-0.78-0.98-1.17-2.07-1.17h-3.35v-4.84c3.22,0.05,6.41-0.12,9.55-0.51c3.15-0.39,6.25-0.98,9.32-1.76v45.63
		c0,1.87,0.38,3.05,1.13,3.55c0.75,0.49,1.88,0.74,3.39,0.74l1.72-0.08V1605.97z M402.39,1591.47v-5.85c0-2.39-0.56-4.47-1.68-6.24
		c-1.12-1.77-3.06-2.65-5.81-2.65c-2.18,0-3.74,0.81-4.68,2.42c-0.94,1.61-1.53,3.38-1.79,5.3c-0.16,0.78-0.25,1.55-0.27,2.3
		c-0.03,0.75-0.04,1.44-0.04,2.07c0,0.68,0.01,1.42,0.04,2.22c0.03,0.81,0.09,1.62,0.2,2.46c0.21,2.03,0.75,3.88,1.64,5.54
		c0.88,1.67,2.47,2.5,4.76,2.5c3.12,0,5.17-1.03,6.16-3.08c0.99-2.05,1.48-4.35,1.48-6.9V1591.47z M458.71,1595.05l5.77,1.95
		c-1.82,3.54-4.29,6.2-7.41,8c-3.12,1.79-6.66,2.69-10.61,2.69c-5.82,0-10.69-1.63-14.59-4.88s-5.85-7.94-5.85-14.08
		c0-5.88,2.04-10.41,6.12-13.61c4.08-3.2,8.9-4.8,14.47-4.8c5.77,0,10.17,1.72,13.18,5.15c3.02,3.43,4.55,7.96,4.6,13.57h-23.95
		c0,0.26,0,0.49,0,0.7s0,0.41,0,0.62c0.05,2.84,0.57,5.44,1.56,7.79c0.99,2.35,3.28,3.53,6.86,3.53c2.24,0,4.19-0.64,5.85-1.91
		c1.66-1.27,2.99-2.82,3.98-4.64V1595.05z M452,1583.9c0-0.05,0.03-0.1,0.08-0.16c0-0.1,0-0.18,0-0.23c0-0.05,0-0.1,0-0.16
		c0-0.1,0-0.21,0-0.31c0-0.1,0-0.21,0-0.31c-0.05-1.77-0.46-3.39-1.21-4.88c-0.75-1.48-2.2-2.22-4.33-2.22
		c-2.29,0-3.78,0.75-4.48,2.24c-0.7,1.49-1.16,3.12-1.37,4.87c-0.05,0.26-0.09,0.49-0.12,0.7c-0.03,0.21-0.04,0.41-0.04,0.62H452
		C452,1584.01,452,1583.95,452,1583.9z M486.71,1570.64c0.36,0.88,0.64,1.79,0.82,2.73c0.18,0.94,0.3,1.87,0.35,2.81
		c1.3-1.51,2.83-2.86,4.6-4.06c1.77-1.2,3.69-1.79,5.77-1.79c1.82,0,3.31,0.62,4.48,1.87s1.75,2.76,1.75,4.52
		c0,1.61-0.52,3.02-1.56,4.21c-1.04,1.2-2.37,1.87-3.98,2.03c-0.16,0-0.3,0-0.43,0c-0.13,0-0.27,0-0.43,0
		c-0.68-0.05-1.34-0.2-1.99-0.43c-0.65-0.23-1.18-0.64-1.6-1.21c-0.1-0.1-0.19-0.22-0.27-0.35c-0.08-0.13-0.17-0.25-0.27-0.35
		c-0.26-0.31-0.53-0.61-0.82-0.9c-0.29-0.29-0.64-0.43-1.05-0.43c-0.73,0-1.39,0.27-1.99,0.82c-0.6,0.55-1.11,1.16-1.52,1.83
		c-0.16,0.21-0.29,0.4-0.39,0.58c-0.1,0.18-0.21,0.38-0.31,0.59v13.57c0,2.03,0.39,3.24,1.17,3.63c0.78,0.39,1.74,0.64,2.89,0.74
		c0.05,0,0.1,0,0.16,0c0.42,0,0.82,0.03,1.21,0.08c0.39,0.05,0.77,0.13,1.13,0.23v4.6h-25.27v-4.6c0.26,0,0.52-0.03,0.78-0.08
		c0.26-0.05,0.55-0.08,0.86-0.08c0.1,0,0.19-0.01,0.27-0.04c0.08-0.03,0.17-0.04,0.27-0.04c0.88-0.1,1.69-0.33,2.42-0.66
		c0.73-0.34,1.09-1.06,1.09-2.15v-0.16v-1.88v-13.3c0-2.14-0.34-3.47-1.01-3.99c-0.68-0.52-1.82-0.86-3.43-1.02
		c-0.21-0.05-0.42-0.09-0.62-0.12c-0.21-0.03-0.42-0.04-0.62-0.04v-4.77c2.96-0.05,5.91-0.29,8.85-0.7c2.94-0.42,5.84-0.96,8.7-1.64
		V1570.64z M535.77,1582.73h-4.68c-0.52-2.03-1.53-3.72-3.04-5.07c-1.51-1.35-3.38-2.03-5.62-2.03c-0.16,0-0.33,0.01-0.51,0.04
		c-0.18,0.03-0.35,0.07-0.51,0.12c-0.57,0.16-1.09,0.42-1.56,0.78c-0.47,0.36-0.7,0.86-0.7,1.48c0,0.73,0.29,1.34,0.86,1.83
		c0.57,0.5,1.2,0.92,1.87,1.29c0.31,0.16,0.61,0.3,0.9,0.43c0.29,0.13,0.56,0.27,0.82,0.43c0.26,0.16,0.52,0.31,0.78,0.47
		c0.26,0.16,0.52,0.29,0.78,0.39c0.26,0.21,0.55,0.39,0.86,0.55s0.62,0.34,0.94,0.55c2.5,1.4,4.8,3.04,6.9,4.91s3.16,4.45,3.16,7.72
		c0,3.33-1.18,5.97-3.55,7.92c-2.37,1.95-5.14,3-8.31,3.16c-2.08,0-4.11-0.27-6.08-0.82c-1.98-0.55-3.72-1.55-5.23-3l-1.33,2.11
		h-4.99v-13.03h4.99c0.88,2.45,2.2,4.68,3.94,6.71c1.74,2.03,4.02,3.04,6.83,3.04c0.88,0,1.7-0.22,2.46-0.66
		c0.75-0.44,1.13-1.16,1.13-2.14c0-0.78-0.35-1.52-1.05-2.22c-0.7-0.7-1.6-1.39-2.69-2.07c-0.83-0.52-1.77-1.04-2.81-1.56
		c-1.04-0.52-2.08-1.07-3.12-1.64c-2.44-1.35-4.67-2.92-6.67-4.72c-2-1.79-3-4.04-3-6.75c0-3.22,1.26-5.8,3.78-7.72
		c2.52-1.92,5.29-2.89,8.31-2.89c1.82,0,3.63,0.22,5.42,0.66c1.79,0.44,3.5,1.05,5.11,1.83l0.94-2.57h4.68V1582.73z M546.77,1574.85
		l-4.21-20.9h14.98l-4.21,20.9H546.77z M638.42,1569.31h-5.07c-0.21-2.86-0.79-5.25-1.75-7.18c-0.96-1.92-3.13-2.89-6.51-2.89h-7.18
		v33.79c0,3.53,0.47,5.71,1.4,6.54c0.94,0.83,3.15,1.25,6.63,1.25v5.15h-30.11v-5.15c3.54,0.05,5.76-0.34,6.67-1.17
		c0.91-0.83,1.36-2.99,1.36-6.47v-33.93h-7.96c-2.7,0.05-4.52,1.01-5.46,2.86c-0.94,1.86-1.51,3.9-1.72,6.12
		c0,0.21-0.01,0.4-0.04,0.58c-0.03,0.18-0.04,0.37-0.04,0.58l-5.07-0.08l0.7-15.37h53.35L638.42,1569.31z M684.44,1588.97
		c0,6.03-2.12,10.66-6.36,13.88c-4.24,3.22-9.17,4.84-14.78,4.84c-5.62,0-10.56-1.6-14.82-4.8c-4.26-3.2-6.4-7.79-6.4-13.77
		c0-6.03,2.11-10.67,6.32-13.92c4.21-3.25,9.15-4.88,14.82-4.88c5.72,0,10.69,1.6,14.9,4.8c4.21,3.2,6.32,7.84,6.32,13.92V1588.97z
		 M670.04,1586.44c-0.03-0.86-0.07-1.73-0.12-2.61c-0.21-2.08-0.77-3.98-1.68-5.69c-0.91-1.72-2.54-2.57-4.88-2.57
		c-2.39,0-4.07,0.88-5.03,2.65c-0.96,1.77-1.55,3.72-1.75,5.85c-0.1,0.83-0.17,1.65-0.19,2.46c-0.03,0.81-0.04,1.57-0.04,2.3
		c0,0.73,0.01,1.55,0.04,2.46c0.03,0.91,0.09,1.81,0.19,2.69c0.21,2.13,0.78,4.09,1.72,5.89s2.63,2.69,5.07,2.69
		c2.39,0,4.03-0.88,4.91-2.65c0.88-1.77,1.43-3.69,1.64-5.77c0.05-0.78,0.09-1.53,0.12-2.26c0.03-0.73,0.04-1.43,0.04-2.11v-1.01
		C670.08,1588.06,670.07,1587.29,670.04,1586.44z M707.06,1570.56c0.1,0.36,0.18,0.69,0.23,0.98c0.05,0.29,0.1,0.58,0.16,0.9
		c0.16,0.57,0.27,1.16,0.35,1.75c0.08,0.6,0.12,1.21,0.12,1.83c1.46-2.13,3.2-3.63,5.23-4.48c2.03-0.86,4.29-1.29,6.79-1.29
		c5.2,0,9.19,1.77,11.97,5.3c2.78,3.54,4.17,7.8,4.17,12.79c0,5.36-1.47,9.91-4.41,13.65c-2.94,3.74-7.29,5.62-13.06,5.62
		c-0.1,0-0.19,0-0.27,0s-0.17,0-0.27,0c-1.92-0.05-3.8-0.39-5.62-1.01c-1.82-0.62-3.33-1.74-4.52-3.35v12.79
		c0,2.24,0.29,3.76,0.86,4.56c0.57,0.81,1.95,1.21,4.13,1.21v4.68h-22.93v-4.68c2.24,0,3.63-0.43,4.17-1.29
		c0.55-0.86,0.82-2.35,0.82-4.49v-33.23c0-2.39-0.4-3.82-1.21-4.29c-0.81-0.47-2.35-0.7-4.64-0.7v-4.76
		c0.78-0.05,1.57-0.12,2.38-0.2c0.81-0.08,1.6-0.14,2.38-0.19c2.18-0.21,4.38-0.46,6.59-0.74c2.21-0.29,4.41-0.71,6.59-1.29V1570.56
		z M707.91,1586.4v5.15c0,2.6,0.42,4.94,1.25,7.02c0.83,2.08,2.83,3.12,6.01,3.12c2.13,0,3.67-0.79,4.6-2.38
		c0.94-1.59,1.56-3.32,1.87-5.19c0.1-0.78,0.18-1.56,0.23-2.34c0.05-0.78,0.08-1.48,0.08-2.11c0-0.57-0.01-1.14-0.04-1.72
		c-0.03-0.57-0.07-1.17-0.12-1.79c-0.16-2.08-0.69-4-1.6-5.77c-0.91-1.77-2.64-2.65-5.19-2.65c-2.5,0-4.3,0.91-5.42,2.73
		c-1.12,1.82-1.68,3.82-1.68,6.01V1586.4z M814.38,1572.51h-5.23c-0.52-4.63-2.13-8.25-4.84-10.88c-2.7-2.62-6.37-3.94-11-3.94
		c-4.79,0-8.29,1.73-10.53,5.19c-2.24,3.46-3.67,7.27-4.29,11.43c-0.16,1.09-0.27,2.17-0.35,3.24c-0.08,1.07-0.12,2.09-0.12,3.08
		c0,5.67,1.26,10.63,3.78,14.9c2.52,4.26,7.01,6.4,13.46,6.4c4,0,7.58-1.01,10.73-3.04c3.15-2.03,5.76-4.71,7.84-8.03l4.76,3.59
		c-3.28,4.58-6.93,7.9-10.96,9.98c-4.03,2.08-8.88,3.12-14.55,3.12c-8.06,0-15.01-2.35-20.86-7.06c-5.85-4.71-8.77-11.3-8.77-19.77
		c0-7.9,2.77-14.59,8.31-20.05c5.54-5.46,12.23-8.19,20.09-8.19c0.21,0,0.4,0,0.58,0c0.18,0,0.35,0,0.51,0
		c2.65,0.1,5.25,0.52,7.8,1.25c2.55,0.73,4.89,1.87,7.02,3.43c0.36-0.52,0.66-1.08,0.9-1.68c0.23-0.6,0.4-1.21,0.51-1.83l4.6-0.08
		L814.38,1572.51z M847.92,1572.01c2.29-1.12,4.71-1.68,7.25-1.68c3.69,0,6.76,0.87,9.2,2.61c2.44,1.74,3.67,4.62,3.67,8.62v13.96
		c0,2.24,0.18,3.77,0.55,4.6c0.36,0.83,1.66,1.25,3.9,1.25h1.01v4.6H850.5v-4.6c1.72,0.05,2.98-0.16,3.78-0.63
		c0.81-0.47,1.21-1.56,1.21-3.29v-1.88v-10.33c0-1.93-0.3-3.6-0.9-5.01c-0.6-1.41-2.07-2.11-4.41-2.11c-2.13,0-4.03,0.81-5.69,2.42
		c-1.66,1.61-2.5,3.48-2.5,5.62v9.36c0,2.24,0.25,3.77,0.74,4.6c0.49,0.83,1.91,1.25,4.25,1.25v4.6h-23.48v-4.6
		c2.5,0.05,4.04-0.3,4.64-1.05c0.6-0.76,0.9-2.31,0.9-4.65v-31.96v-1.41c0-0.05,0-0.1,0-0.16c0-0.88-0.14-1.71-0.43-2.46
		c-0.29-0.75-1-1.13-2.15-1.13h-3.28v-4.84c3.17,0.05,6.33-0.13,9.48-0.55c3.15-0.42,6.25-0.99,9.32-1.72v25.04
		C843.66,1574.62,845.63,1573.12,847.92,1572.01z M919.76,1588.97c0,6.03-2.12,10.66-6.36,13.88c-4.24,3.22-9.17,4.84-14.78,4.84
		c-5.62,0-10.56-1.6-14.82-4.8c-4.26-3.2-6.4-7.79-6.4-13.77c0-6.03,2.11-10.67,6.32-13.92c4.21-3.25,9.15-4.88,14.82-4.88
		c5.72,0,10.69,1.6,14.9,4.8c4.21,3.2,6.32,7.84,6.32,13.92V1588.97z M905.37,1586.44c-0.03-0.86-0.07-1.73-0.12-2.61
		c-0.21-2.08-0.77-3.98-1.68-5.69c-0.91-1.72-2.54-2.57-4.88-2.57c-2.39,0-4.07,0.88-5.03,2.65c-0.96,1.77-1.55,3.72-1.75,5.85
		c-0.1,0.83-0.17,1.65-0.19,2.46c-0.03,0.81-0.04,1.57-0.04,2.3c0,0.73,0.01,1.55,0.04,2.46c0.03,0.91,0.09,1.81,0.19,2.69
		c0.21,2.13,0.78,4.09,1.72,5.89s2.63,2.69,5.07,2.69c2.39,0,4.03-0.88,4.91-2.65c0.88-1.77,1.43-3.69,1.64-5.77
		c0.05-0.78,0.09-1.53,0.12-2.26c0.03-0.73,0.04-1.43,0.04-2.11v-1.01C905.41,1588.06,905.39,1587.29,905.37,1586.44z
		 M943.24,1570.64v26.52c0,1.87,0.35,3.03,1.05,3.47c0.7,0.44,1.94,0.69,3.71,0.74h1.09v4.6h-24.73v-4.6h0.94
		c0.1,0.05,0.21,0.08,0.31,0.08c0.1,0,0.21,0,0.31,0c0.1,0,0.23,0,0.39,0c0.16,0,0.29-0.03,0.39-0.08c0.88,0,1.7-0.16,2.46-0.47
		c0.75-0.31,1.13-1.02,1.13-2.11v-16.83c0-2.09-0.53-3.3-1.6-3.64c-1.07-0.34-2.51-0.51-4.33-0.51v-4.76
		c1.35,0.05,2.7,0.03,4.06-0.08c1.35-0.1,2.7-0.23,4.06-0.39c1.82-0.26,3.63-0.55,5.42-0.86c1.79-0.31,3.57-0.65,5.34-1.01V1570.64z
		 M930.99,1562.06c-1.46-1.46-2.18-3.17-2.18-5.15c0-1.98,0.73-3.68,2.18-5.11c1.46-1.43,3.17-2.15,5.15-2.15
		c1.98,0,3.68,0.72,5.11,2.15c1.43,1.43,2.15,3.13,2.15,5.11c0,1.95-0.72,3.65-2.15,5.09c-1.43,1.44-3.13,2.16-5.11,2.16
		C934.16,1564.22,932.45,1563.52,930.99,1562.06z M984.19,1605.31c-3.17,1.59-6.6,2.38-10.3,2.38c-5.67,0-10.53-1.55-14.59-4.64
		c-4.06-3.09-6.08-7.68-6.08-13.77c0-6.13,2.03-10.83,6.08-14.08c4.06-3.25,8.97-4.88,14.74-4.88c0.83,0,1.72,0.05,2.65,0.16
		c0.94,0.11,1.9,0.26,2.89,0.47c2.44,0.57,4.71,1.57,6.79,3c2.08,1.43,3.12,3.5,3.12,6.2c0,1.3-0.51,2.39-1.52,3.28
		c-1.01,0.88-2.15,1.33-3.39,1.33c-1.09,0-2.04-0.27-2.85-0.82c-0.81-0.55-1.52-1.23-2.15-2.07c0.05-0.21,0.09-0.4,0.12-0.58
		c0.03-0.18,0.04-0.35,0.04-0.51c0-1.51-0.53-2.75-1.6-3.74c-1.07-0.99-2.35-1.48-3.86-1.48c-2.34,0-3.99,0.87-4.95,2.61
		c-0.96,1.74-1.57,3.65-1.83,5.73c-0.1,0.94-0.17,1.87-0.2,2.81c-0.03,0.94-0.04,1.77-0.04,2.5c0,0.31,0,0.65,0,1.01
		c0,0.36,0,0.7,0,1.01c0.1,2.81,0.66,5.4,1.68,7.76c1.01,2.37,3.29,3.55,6.83,3.55c2.55,0,4.52-0.69,5.93-2.07
		c1.4-1.38,2.6-3.11,3.59-5.19l5.69,2.26C989.62,1601.14,987.36,1603.73,984.19,1605.31z M1028.96,1595.05l5.77,1.95
		c-1.82,3.54-4.29,6.2-7.41,8s-6.66,2.69-10.61,2.69c-5.82,0-10.69-1.63-14.59-4.88c-3.9-3.25-5.85-7.94-5.85-14.08
		c0-5.88,2.04-10.41,6.12-13.61c4.08-3.2,8.9-4.8,14.47-4.8c5.77,0,10.17,1.72,13.18,5.15s4.55,7.96,4.6,13.57h-23.95
		c0,0.26,0,0.49,0,0.7s0,0.41,0,0.62c0.05,2.84,0.57,5.44,1.56,7.79c0.99,2.35,3.28,3.53,6.86,3.53c2.24,0,4.19-0.64,5.85-1.91
		c1.66-1.27,2.99-2.82,3.98-4.64V1595.05z M1022.25,1583.9c0-0.05,0.03-0.1,0.08-0.16c0-0.1,0-0.18,0-0.23c0-0.05,0-0.1,0-0.16
		c0-0.1,0-0.21,0-0.31c0-0.1,0-0.21,0-0.31c-0.05-1.77-0.46-3.39-1.21-4.88c-0.75-1.48-2.2-2.22-4.33-2.22
		c-2.29,0-3.78,0.75-4.48,2.24c-0.7,1.49-1.16,3.12-1.37,4.87c-0.05,0.26-0.09,0.49-0.12,0.7c-0.03,0.21-0.04,0.41-0.04,0.62h11.47
		C1022.25,1584.01,1022.25,1583.95,1022.25,1583.9z M1108.67,1568.22h-5.38c-0.31-2.86-1.11-5.07-2.38-6.63
		c-1.27-1.56-3.45-2.34-6.51-2.34h-11.86v16.85h5.15c2.55,0.05,4.21-0.52,4.99-1.72c0.78-1.2,1.2-2.91,1.25-5.15l4.45-0.08v19.42
		h-4.45c0-2.18-0.4-3.96-1.21-5.34c-0.81-1.38-2.48-2.07-5.03-2.07h-5.15v11.89c0,3.32,0.42,5.44,1.25,6.37
		c0.83,0.93,2.91,1.4,6.24,1.4v5.15h-29.02v-5.15c3.38,0.05,5.47-0.39,6.28-1.33c0.81-0.94,1.21-3.05,1.21-6.33v-26.18
		c0-3.23-0.4-5.33-1.21-6.29c-0.81-0.96-2.9-1.45-6.28-1.45v-5.3h46.02L1108.67,1568.22z M1155.71,1588.97
		c0,6.03-2.12,10.66-6.36,13.88c-4.24,3.22-9.17,4.84-14.78,4.84s-10.56-1.6-14.82-4.8s-6.4-7.79-6.4-13.77
		c0-6.03,2.11-10.67,6.32-13.92c4.21-3.25,9.15-4.88,14.82-4.88c5.72,0,10.69,1.6,14.9,4.8c4.21,3.2,6.32,7.84,6.32,13.92V1588.97z
		 M1141.32,1586.44c-0.03-0.86-0.07-1.73-0.12-2.61c-0.21-2.08-0.77-3.98-1.68-5.69c-0.91-1.72-2.54-2.57-4.88-2.57
		c-2.39,0-4.07,0.88-5.03,2.65c-0.96,1.77-1.55,3.72-1.75,5.85c-0.1,0.83-0.17,1.65-0.2,2.46c-0.03,0.81-0.04,1.57-0.04,2.3
		c0,0.73,0.01,1.55,0.04,2.46c0.03,0.91,0.09,1.81,0.2,2.69c0.21,2.13,0.78,4.09,1.72,5.89c0.94,1.79,2.62,2.69,5.07,2.69
		c2.39,0,4.03-0.88,4.91-2.65c0.88-1.77,1.43-3.69,1.64-5.77c0.05-0.78,0.09-1.53,0.12-2.26c0.03-0.73,0.04-1.43,0.04-2.11v-1.01
		C1141.35,1588.06,1141.34,1587.29,1141.32,1586.44z M1177.94,1570.64c0.36,0.88,0.64,1.79,0.82,2.73c0.18,0.94,0.3,1.87,0.35,2.81
		c1.3-1.51,2.83-2.86,4.6-4.06c1.77-1.2,3.69-1.79,5.77-1.79c1.82,0,3.31,0.62,4.48,1.87c1.17,1.25,1.76,2.76,1.76,4.52
		c0,1.61-0.52,3.02-1.56,4.21c-1.04,1.2-2.37,1.87-3.98,2.03c-0.16,0-0.3,0-0.43,0s-0.27,0-0.43,0c-0.68-0.05-1.34-0.2-1.99-0.43
		c-0.65-0.23-1.18-0.64-1.6-1.21c-0.1-0.1-0.2-0.22-0.27-0.35c-0.08-0.13-0.17-0.25-0.27-0.35c-0.26-0.31-0.53-0.61-0.82-0.9
		c-0.29-0.29-0.64-0.43-1.05-0.43c-0.73,0-1.39,0.27-1.99,0.82c-0.6,0.55-1.11,1.16-1.52,1.83c-0.16,0.21-0.29,0.4-0.39,0.58
		c-0.1,0.18-0.21,0.38-0.31,0.59v13.57c0,2.03,0.39,3.24,1.17,3.63c0.78,0.39,1.74,0.64,2.89,0.74c0.05,0,0.1,0,0.16,0
		c0.42,0,0.82,0.03,1.21,0.08c0.39,0.05,0.77,0.13,1.13,0.23v4.6h-25.27v-4.6c0.26,0,0.52-0.03,0.78-0.08
		c0.26-0.05,0.55-0.08,0.86-0.08c0.1,0,0.2-0.01,0.27-0.04c0.08-0.03,0.17-0.04,0.27-0.04c0.88-0.1,1.69-0.33,2.42-0.66
		c0.73-0.34,1.09-1.06,1.09-2.15v-0.16v-1.88v-13.3c0-2.14-0.34-3.47-1.01-3.99c-0.68-0.52-1.82-0.86-3.43-1.02
		c-0.21-0.05-0.42-0.09-0.62-0.12c-0.21-0.03-0.42-0.04-0.62-0.04v-4.77c2.96-0.05,5.91-0.29,8.85-0.7c2.94-0.42,5.84-0.96,8.7-1.64
		V1570.64z M1250.01,1607.53c-8.01,0-14.75-2.53-20.24-7.6s-8.23-11.71-8.23-19.93c0-8.53,2.87-15.25,8.62-20.16
		c5.75-4.91,12.7-7.37,20.86-7.37c8.27,0,15.29,2.44,21.06,7.33c5.77,4.89,8.66,11.67,8.66,20.36c0,0.57-0.01,1.13-0.04,1.68
		c-0.03,0.55-0.09,1.11-0.2,1.68c-0.31,2.6-0.97,5.15-1.99,7.64c-1.01,2.5-2.33,4.73-3.94,6.71c-1.77,2.13-4.15,4.13-7.14,6.01
		c-2.99,1.87-6.12,3.56-9.4,5.07c-2.13,0.99-4.21,1.87-6.24,2.65c-2.03,0.78-3.9,1.43-5.62,1.95c0.68-0.05,1.33-0.16,1.95-0.31
		s1.27-0.31,1.95-0.47c0.94-0.21,1.9-0.4,2.89-0.58c0.99-0.18,1.98-0.27,2.96-0.27c2.81,0,5.53,0.47,8.15,1.4
		c2.62,0.94,5.16,1.95,7.61,3.04c2.44,1.09,4.78,2.11,7.02,3.04c2.24,0.94,4.32,1.4,6.24,1.4c1.66,0,2.94-0.36,3.82-1.09
		c0.88-0.73,1.61-1.53,2.18-2.42c0.21-0.26,0.39-0.52,0.55-0.78c0.16-0.26,0.29-0.5,0.39-0.7c0.36-0.52,0.74-0.98,1.13-1.37
		c0.39-0.39,0.84-0.61,1.36-0.66c0.52,0,0.99,0.16,1.4,0.47c0.42,0.31,0.62,0.73,0.62,1.25c-0.05,0.47-0.14,0.96-0.27,1.48
		c-0.13,0.52-0.33,1.04-0.58,1.56c-0.26,0.62-0.56,1.22-0.9,1.79c-0.34,0.57-0.66,1.12-0.98,1.64c-0.21,0.26-0.4,0.52-0.58,0.78
		c-0.18,0.26-0.35,0.49-0.51,0.7c-1.46,1.82-3.17,3.22-5.15,4.21c-1.98,0.99-4.13,1.48-6.47,1.48c-3.59,0-6.89-0.7-9.91-2.11
		c-3.02-1.4-5.85-2.94-8.5-4.6c-2.65-1.72-5.15-3.28-7.49-4.68c-2.34-1.4-4.65-2.11-6.94-2.11c-1.14,0-2.24,0.2-3.28,0.58
		c-1.04,0.39-2.03,0.82-2.96,1.29c-0.88,0.47-1.69,0.9-2.42,1.29c-0.73,0.39-1.33,0.58-1.79,0.58c-0.57,0-1.07-0.25-1.48-0.74
		c-0.42-0.49-0.73-1.03-0.94-1.6c-0.05-0.21-0.09-0.42-0.12-0.62c-0.03-0.21-0.04-0.39-0.04-0.55c0-0.62,0.21-1.09,0.62-1.4
		c0.42-0.31,0.91-0.55,1.48-0.7c2.44-0.73,4.82-1.61,7.14-2.65c2.31-1.04,4.54-2.26,6.67-3.67L1250.01,1607.53z M1266.15,1579.92
		c0-0.73-0.01-1.51-0.04-2.34c-0.03-0.83-0.09-1.66-0.2-2.5c-0.36-4.37-1.57-8.36-3.63-11.97c-2.05-3.61-5.76-5.42-11.12-5.42
		c-4.68,0-8.12,1.7-10.33,5.11c-2.21,3.41-3.63,7.16-4.25,11.27c-0.16,1.04-0.27,2.07-0.35,3.08c-0.08,1.01-0.12,2.02-0.12,3
		c0,0.88,0.03,1.77,0.08,2.65c0.05,0.88,0.13,1.77,0.23,2.65c0.52,4.32,1.86,8.26,4.02,11.82c2.16,3.56,5.76,5.34,10.8,5.34
		c5.1,0,8.7-1.78,10.8-5.34c2.11-3.56,3.37-7.47,3.78-11.74c0.1-0.94,0.18-1.87,0.23-2.81c0.05-0.94,0.08-1.84,0.08-2.73V1579.92z
		 M1324.93,1606.21c-2.99,0.16-5.97,0.42-8.93,0.78c-0.16-0.47-0.27-0.91-0.35-1.33c-0.08-0.42-0.17-0.83-0.27-1.25
		c-0.05-0.42-0.1-0.84-0.16-1.29c-0.05-0.44-0.08-0.9-0.08-1.37c-1.77,2.18-3.74,3.72-5.93,4.6c-2.18,0.88-4.65,1.33-7.41,1.33
		c-4.32,0-7.45-1.08-9.4-3.24c-1.95-2.16-2.92-5.34-2.92-9.55v-13.96c0-1.61-0.31-2.72-0.94-3.31s-1.77-0.9-3.43-0.9v-4.84h17.24
		v20.26c0,0.21,0,0.38,0,0.51c0,0.13,0,0.25,0,0.35c0.05,1.77,0.44,3.39,1.17,4.85c0.73,1.46,2.16,2.19,4.29,2.19
		c2.44,0,4.24-0.81,5.38-2.42c1.14-1.61,1.72-3.54,1.72-5.77v-11.23c0-1.87-0.48-2.99-1.44-3.35c-0.96-0.36-2.3-0.55-4.02-0.55
		v-4.84h18.41v25.18c0,1.88,0.39,3.06,1.17,3.56c0.78,0.49,1.92,0.74,3.43,0.74h1.48v4.6
		C1330.92,1605.97,1327.92,1606.05,1324.93,1606.21z M1379.13,1604.84c-2.05,1.64-4.77,2.46-8.15,2.46c-2.08,0-3.94-0.38-5.58-1.13
		c-1.64-0.75-3.13-1.88-4.49-3.39c-0.1,0.05-0.2,0.12-0.27,0.2c-0.08,0.08-0.14,0.17-0.2,0.27c-1.61,1.46-3.28,2.56-4.99,3.32
		s-3.72,1.13-6.01,1.13c-3.07,0-5.73-0.79-8-2.38s-3.39-4.04-3.39-7.37c0-4.42,1.48-7.38,4.45-8.89c2.96-1.51,6.24-2.65,9.83-3.43
		c0.26-0.05,0.51-0.1,0.74-0.16s0.48-0.1,0.74-0.16c1.09-0.26,2.18-0.52,3.28-0.78c1.09-0.26,2.11-0.55,3.04-0.86v-4.29
		c0-1.3-0.43-2.27-1.29-2.93c-0.86-0.65-1.96-0.97-3.32-0.97c-1.92,0-3.13,0.42-3.63,1.25c-0.5,0.83-0.85,1.74-1.05,2.73
		c-0.21,1.04-0.57,1.99-1.09,2.85c-0.52,0.86-1.85,1.29-3.98,1.29c-0.16,0-0.3,0-0.43,0c-0.13,0-0.25,0-0.35,0
		c-1.09-0.1-2.11-0.43-3.04-0.98c-0.94-0.55-1.46-1.42-1.56-2.61c0-2.7,1.07-4.72,3.2-6.04c2.13-1.33,4.47-2.22,7.02-2.69
		c1.14-0.26,2.26-0.43,3.35-0.51c1.09-0.08,2.08-0.12,2.96-0.12c4.78,0,8.68,0.83,11.7,2.5c3.02,1.67,4.52,5.17,4.52,10.53v16.07
		c0,0.62,0.16,1.14,0.47,1.56c0.31,0.42,0.75,0.62,1.33,0.62c0.78,0,1.34-0.3,1.68-0.9c0.34-0.6,0.58-1.26,0.74-1.99
		c0.05-0.31,0.09-0.62,0.12-0.94c0.03-0.31,0.04-0.6,0.04-0.86l4.99-0.08C1382.32,1600.64,1381.19,1603.21,1379.13,1604.84z
		 M1359.83,1588.97c-0.1,0.05-0.23,0.08-0.39,0.08c-0.42,0.16-0.86,0.31-1.33,0.47s-0.91,0.34-1.33,0.55
		c-1.51,0.57-2.89,1.3-4.13,2.18c-1.25,0.88-1.87,2.16-1.87,3.82c0,1.3,0.44,2.42,1.33,3.35c0.88,0.94,2,1.4,3.35,1.4
		c1.46,0,2.6-0.4,3.43-1.21c0.83-0.8,1.25-1.91,1.25-3.31v-7.57C1360.04,1588.84,1359.93,1588.92,1359.83,1588.97z M1408.89,1605.97
		h-23.95v-4.68c2.29,0.05,3.77-0.26,4.45-0.94c0.67-0.67,1.01-2.13,1.01-4.37v-0.47v-31.98v-1.4c0-0.05,0-0.1,0-0.16
		c0-0.83-0.14-1.61-0.43-2.34c-0.29-0.73-0.98-1.09-2.07-1.09h-3.28v-4.84c2.39,0.05,4.76-0.06,7.1-0.35
		c2.34-0.29,4.68-0.64,7.02-1.05c0.78-0.16,1.56-0.3,2.34-0.43c0.78-0.13,1.56-0.27,2.34-0.43v44c0,2.6,0.29,4.22,0.86,4.87
		s2.11,0.97,4.6,0.97V1605.97z M1431.98,1570.64v26.52c0,1.87,0.35,3.03,1.05,3.47c0.7,0.44,1.94,0.69,3.71,0.74h1.09v4.6h-24.73
		v-4.6h0.94c0.1,0.05,0.21,0.08,0.31,0.08c0.1,0,0.21,0,0.31,0c0.1,0,0.23,0,0.39,0c0.16,0,0.29-0.03,0.39-0.08
		c0.88,0,1.7-0.16,2.46-0.47c0.75-0.31,1.13-1.02,1.13-2.11v-16.83c0-2.09-0.53-3.3-1.6-3.64c-1.07-0.34-2.51-0.51-4.33-0.51v-4.76
		c1.35,0.05,2.7,0.03,4.06-0.08c1.35-0.1,2.7-0.23,4.06-0.39c1.82-0.26,3.63-0.55,5.42-0.86c1.79-0.31,3.58-0.65,5.34-1.01V1570.64z
		 M1419.73,1562.06c-1.46-1.46-2.18-3.17-2.18-5.15c0-1.98,0.73-3.68,2.18-5.11c1.46-1.43,3.17-2.15,5.15-2.15
		c1.98,0,3.68,0.72,5.11,2.15c1.43,1.43,2.14,3.13,2.14,5.11c0,1.95-0.71,3.65-2.14,5.09c-1.43,1.44-3.13,2.16-5.11,2.16
		C1422.9,1564.22,1421.19,1563.52,1419.73,1562.06z M1459.67,1572.9h8.66v4.91h-8.66v20.05c0,0.94,0.13,1.78,0.39,2.54
		c0.26,0.75,0.94,1.13,2.03,1.13c1.2,0,2.13-0.42,2.81-1.25c0.68-0.83,1.2-1.74,1.56-2.73c0.1-0.26,0.19-0.51,0.27-0.74
		s0.14-0.45,0.2-0.66l4.76,1.72c-1.25,3.23-2.89,5.67-4.91,7.33c-2.03,1.66-4.81,2.5-8.35,2.5c-3.33,0-6.11-0.85-8.35-2.54
		c-2.24-1.69-3.35-4.3-3.35-7.84v-19.5h-5.3v-4.91c4.73-0.42,7.9-1.82,9.52-4.21c1.61-2.39,2.6-5.75,2.96-10.06l5.77-0.08V1572.9z
		 M1520.2,1576.65c-0.16,0.05-0.31,0.08-0.47,0.08c-0.16,0-0.31-0.03-0.47-0.08c-0.21,0-0.39,0-0.55,0c-0.16,0-0.31,0-0.47,0
		c-0.88,0-1.59,0.12-2.11,0.35c-0.52,0.23-1.01,0.69-1.48,1.36c-0.1,0.21-0.22,0.44-0.35,0.7c-0.13,0.26-0.27,0.55-0.43,0.86
		l-15.76,33.62c-0.36,0.73-0.72,1.48-1.05,2.26c-0.34,0.78-0.72,1.56-1.13,2.34c-1.2,2.34-2.65,4.49-4.37,6.43
		c-1.72,1.95-3.93,2.93-6.63,2.93c-1.72,0-3.25-0.51-4.6-1.52c-1.35-1.01-2.08-2.43-2.18-4.25c0-0.83,0.12-1.61,0.35-2.34
		c0.23-0.73,0.58-1.46,1.05-2.18c0.73,0.78,1.56,1.35,2.5,1.72c0.94,0.36,1.9,0.55,2.89,0.55c1.87,0,3.48-0.83,4.84-2.5
		c1.35-1.67,2.5-3.48,3.43-5.46c0.57-1.09,1.07-2.15,1.48-3.16c0.42-1.01,0.81-1.89,1.17-2.61l-15.52-26.43
		c-0.1-0.16-0.22-0.33-0.35-0.51c-0.13-0.18-0.25-0.35-0.35-0.51c-0.57-0.78-1.21-1.25-1.91-1.41c-0.7-0.16-1.65-0.24-2.85-0.24
		v-4.76h24.34v4.76h-2.18c-0.1,0-0.21,0-0.31,0c-0.1,0-0.21,0-0.31,0c-0.31,0.05-0.61,0.16-0.9,0.31c-0.29,0.16-0.43,0.42-0.43,0.78
		c0,0.31,0.05,0.6,0.16,0.86c0.1,0.26,0.23,0.52,0.39,0.78c0.05,0.05,0.09,0.12,0.12,0.19c0.03,0.08,0.06,0.17,0.12,0.27l5.62,9.75
		c0.21,0.36,0.36,0.71,0.47,1.05c0.1,0.34,0.18,0.69,0.23,1.05c0,0.16,0.03,0.33,0.08,0.51c0.05,0.18,0.08,0.35,0.08,0.51
		c0.1-0.62,0.23-1.23,0.39-1.83c0.16-0.6,0.36-1.18,0.62-1.75l4.52-9.91c0.05-0.05,0.1-0.14,0.16-0.27c0.05-0.13,0.1-0.27,0.16-0.43
		c0.05-0.1,0.09-0.22,0.12-0.35s0.04-0.25,0.04-0.35c0-0.47-0.16-0.77-0.47-0.9c-0.31-0.13-0.65-0.22-1.01-0.27
		c-0.11,0-0.21,0-0.31,0c-0.1,0-0.21,0-0.31,0h-1.95v-4.76h15.91V1576.65z M1585.01,1567.99h-4.84c-0.57-3.17-2.21-5.78-4.91-7.84
		c-2.7-2.05-5.67-3.08-8.89-3.08c-0.31,0-0.62,0.01-0.94,0.04c-0.31,0.03-0.62,0.07-0.94,0.12c-1.46,0.21-2.78,0.74-3.98,1.6
		c-1.2,0.86-1.79,2.12-1.79,3.78c0,1.4,0.49,2.56,1.48,3.47c0.99,0.91,2.08,1.68,3.28,2.3c0.21,0.16,0.44,0.29,0.7,0.39
		c0.26,0.1,0.49,0.21,0.7,0.31l8.42,3.67c3.9,1.82,7.36,3.89,10.37,6.2c3.02,2.31,4.52,5.89,4.52,10.73c0,5.67-1.83,10.06-5.5,13.18
		s-8.26,4.68-13.77,4.68c-0.52,0-1.04-0.01-1.56-0.04c-0.52-0.03-1.04-0.07-1.56-0.12c-2.44-0.31-4.84-0.87-7.18-1.68
		c-2.34-0.8-4.55-1.83-6.63-3.08l-0.78,3.9h-4.91v-17.24h4.91c1.2,3.8,3.37,6.96,6.51,9.48c3.15,2.52,6.72,3.78,10.72,3.78
		c2.24,0,4.24-0.64,6.01-1.91c1.77-1.27,2.65-3.11,2.65-5.5c0-1.98-0.83-3.61-2.5-4.91c-1.67-1.3-3.48-2.42-5.46-3.35
		c-1.04-0.47-2.05-0.9-3.04-1.29c-0.99-0.39-1.85-0.77-2.57-1.13c-0.16-0.05-0.3-0.1-0.43-0.16c-0.13-0.05-0.25-0.13-0.35-0.23
		c-3.74-1.66-7.12-3.6-10.14-5.81c-3.02-2.21-4.52-5.68-4.52-10.41c0-5.1,1.81-8.93,5.42-11.51c3.61-2.57,7.73-3.86,12.36-3.86
		c2.39,0,4.69,0.35,6.9,1.05c2.21,0.7,4.35,1.57,6.43,2.61l0.94-3.04h4.84V1567.99z M1626.9,1595.05l5.77,1.95
		c-1.82,3.54-4.29,6.2-7.41,8s-6.66,2.69-10.61,2.69c-5.82,0-10.69-1.63-14.59-4.88s-5.85-7.94-5.85-14.08
		c0-5.88,2.04-10.41,6.12-13.61c4.08-3.2,8.9-4.8,14.47-4.8c5.77,0,10.17,1.72,13.18,5.15c3.02,3.43,4.55,7.96,4.6,13.57h-23.95
		c0,0.26,0,0.49,0,0.7s0,0.41,0,0.62c0.05,2.84,0.57,5.44,1.56,7.79c0.99,2.35,3.28,3.53,6.86,3.53c2.24,0,4.19-0.64,5.85-1.91
		c1.66-1.27,2.99-2.82,3.98-4.64V1595.05z M1620.19,1583.9c0-0.05,0.03-0.1,0.08-0.16c0-0.1,0-0.18,0-0.23c0-0.05,0-0.1,0-0.16
		c0-0.1,0-0.21,0-0.31c0-0.1,0-0.21,0-0.31c-0.05-1.77-0.46-3.39-1.21-4.88c-0.75-1.48-2.2-2.22-4.33-2.22
		c-2.29,0-3.78,0.75-4.49,2.24s-1.16,3.12-1.36,4.87c-0.05,0.26-0.09,0.49-0.12,0.7c-0.03,0.21-0.04,0.41-0.04,0.62h11.47
		C1620.19,1584.01,1620.19,1583.95,1620.19,1583.9z M1654.9,1570.64c0.36,0.88,0.64,1.79,0.82,2.73c0.18,0.94,0.3,1.87,0.35,2.81
		c1.3-1.51,2.83-2.86,4.6-4.06c1.77-1.2,3.69-1.79,5.77-1.79c1.82,0,3.31,0.62,4.48,1.87c1.17,1.25,1.76,2.76,1.76,4.52
		c0,1.61-0.52,3.02-1.56,4.21c-1.04,1.2-2.37,1.87-3.98,2.03c-0.16,0-0.3,0-0.43,0s-0.27,0-0.43,0c-0.68-0.05-1.34-0.2-1.99-0.43
		c-0.65-0.23-1.18-0.64-1.6-1.21c-0.1-0.1-0.2-0.22-0.27-0.35c-0.08-0.13-0.17-0.25-0.27-0.35c-0.26-0.31-0.53-0.61-0.82-0.9
		c-0.29-0.29-0.64-0.43-1.05-0.43c-0.73,0-1.39,0.27-1.99,0.82c-0.6,0.55-1.11,1.16-1.52,1.83c-0.16,0.21-0.29,0.4-0.39,0.58
		c-0.1,0.18-0.21,0.38-0.31,0.59v13.57c0,2.03,0.39,3.24,1.17,3.63c0.78,0.39,1.74,0.64,2.89,0.74c0.05,0,0.1,0,0.16,0
		c0.42,0,0.82,0.03,1.21,0.08c0.39,0.05,0.77,0.13,1.13,0.23v4.6h-25.27v-4.6c0.26,0,0.52-0.03,0.78-0.08
		c0.26-0.05,0.55-0.08,0.86-0.08c0.1,0,0.2-0.01,0.27-0.04c0.08-0.03,0.17-0.04,0.27-0.04c0.88-0.1,1.69-0.33,2.42-0.66
		c0.73-0.34,1.09-1.06,1.09-2.15v-0.16v-1.88v-13.3c0-2.14-0.34-3.47-1.01-3.99c-0.68-0.52-1.82-0.86-3.43-1.02
		c-0.21-0.05-0.42-0.09-0.62-0.12c-0.21-0.03-0.42-0.04-0.62-0.04v-4.77c2.96-0.05,5.91-0.29,8.85-0.7c2.94-0.42,5.84-0.96,8.7-1.64
		V1570.64z M1718.86,1576.65H1718c-1.4,0.1-2.42,0.39-3.04,0.86c-0.62,0.47-1.17,1.2-1.64,2.18c-0.16,0.26-0.29,0.53-0.39,0.82
		c-0.11,0.29-0.23,0.58-0.39,0.9l-9.75,24.57h-12.71l-9.52-25.5c-0.05-0.1-0.11-0.22-0.16-0.35c-0.05-0.13-0.1-0.25-0.16-0.35
		c-0.57-1.3-1.22-2.15-1.95-2.54c-0.73-0.39-1.9-0.59-3.51-0.59v-4.76h22.23v4.76h-0.62c-0.16,0-0.34,0-0.55,0
		c-0.21,0-0.39,0-0.55,0c-0.52,0.05-0.99,0.18-1.4,0.39c-0.42,0.21-0.62,0.6-0.62,1.17c0,0.26,0.04,0.53,0.12,0.82
		c0.08,0.29,0.17,0.56,0.27,0.82c0.05,0.05,0.09,0.12,0.12,0.2c0.03,0.08,0.04,0.14,0.04,0.19l5.38,14.2
		c0.21,0.57,0.38,1.14,0.51,1.72c0.13,0.57,0.25,1.14,0.35,1.72c0.1-0.52,0.21-1.03,0.31-1.52c0.1-0.49,0.26-1,0.47-1.52l5.23-13.96
		c0.05-0.05,0.09-0.12,0.12-0.19c0.03-0.08,0.04-0.17,0.04-0.27c0.16-0.36,0.29-0.73,0.39-1.09c0.1-0.36,0.18-0.75,0.23-1.17v-0.16
		c0-0.52-0.21-0.86-0.62-1.01c-0.42-0.16-0.88-0.26-1.4-0.31c-0.1,0-0.21,0-0.31,0s-0.21,0-0.31,0h-1.4v-4.76h16.07V1576.65z
		 M1740.78,1570.64v26.52c0,1.87,0.35,3.03,1.05,3.47c0.7,0.44,1.94,0.69,3.71,0.74h1.09v4.6h-24.73v-4.6h0.94
		c0.1,0.05,0.21,0.08,0.31,0.08c0.1,0,0.21,0,0.31,0c0.1,0,0.23,0,0.39,0c0.16,0,0.29-0.03,0.39-0.08c0.88,0,1.7-0.16,2.46-0.47
		c0.75-0.31,1.13-1.02,1.13-2.11v-16.83c0-2.09-0.53-3.3-1.6-3.64c-1.07-0.34-2.51-0.51-4.33-0.51v-4.76
		c1.35,0.05,2.7,0.03,4.06-0.08c1.35-0.1,2.7-0.23,4.06-0.39c1.82-0.26,3.63-0.55,5.42-0.86c1.79-0.31,3.58-0.65,5.34-1.01V1570.64z
		 M1728.53,1562.06c-1.46-1.46-2.18-3.17-2.18-5.15c0-1.98,0.73-3.68,2.18-5.11c1.46-1.43,3.17-2.15,5.15-2.15
		c1.98,0,3.68,0.72,5.11,2.15c1.43,1.43,2.14,3.13,2.14,5.11c0,1.95-0.71,3.65-2.14,5.09c-1.43,1.44-3.13,2.16-5.11,2.16
		C1731.7,1564.22,1729.99,1563.52,1728.53,1562.06z M1781.73,1605.31c-3.17,1.59-6.6,2.38-10.3,2.38c-5.67,0-10.53-1.55-14.59-4.64
		c-4.06-3.09-6.08-7.68-6.08-13.77c0-6.13,2.03-10.83,6.08-14.08c4.06-3.25,8.97-4.88,14.74-4.88c0.83,0,1.72,0.05,2.65,0.16
		c0.94,0.11,1.9,0.26,2.89,0.47c2.44,0.57,4.71,1.57,6.79,3c2.08,1.43,3.12,3.5,3.12,6.2c0,1.3-0.51,2.39-1.52,3.28
		c-1.01,0.88-2.15,1.33-3.39,1.33c-1.09,0-2.04-0.27-2.85-0.82c-0.81-0.55-1.52-1.23-2.14-2.07c0.05-0.21,0.09-0.4,0.12-0.58
		c0.03-0.18,0.04-0.35,0.04-0.51c0-1.51-0.53-2.75-1.6-3.74c-1.07-0.99-2.35-1.48-3.86-1.48c-2.34,0-3.99,0.87-4.95,2.61
		c-0.96,1.74-1.57,3.65-1.83,5.73c-0.1,0.94-0.17,1.87-0.19,2.81c-0.03,0.94-0.04,1.77-0.04,2.5c0,0.31,0,0.65,0,1.01
		c0,0.36,0,0.7,0,1.01c0.1,2.81,0.66,5.4,1.68,7.76c1.01,2.37,3.29,3.55,6.83,3.55c2.55,0,4.52-0.69,5.93-2.07
		c1.4-1.38,2.6-3.11,3.59-5.19l5.69,2.26C1787.16,1601.14,1784.9,1603.73,1781.73,1605.31z M1826.5,1595.05l5.77,1.95
		c-1.82,3.54-4.29,6.2-7.41,8s-6.66,2.69-10.61,2.69c-5.82,0-10.69-1.63-14.59-4.88s-5.85-7.94-5.85-14.08
		c0-5.88,2.04-10.41,6.12-13.61c4.08-3.2,8.9-4.8,14.47-4.8c5.77,0,10.17,1.72,13.18,5.15c3.02,3.43,4.55,7.96,4.6,13.57h-23.95
		c0,0.26,0,0.49,0,0.7s0,0.41,0,0.62c0.05,2.84,0.57,5.44,1.56,7.79c0.99,2.35,3.28,3.53,6.86,3.53c2.24,0,4.19-0.64,5.85-1.91
		c1.66-1.27,2.99-2.82,3.98-4.64V1595.05z M1819.79,1583.9c0-0.05,0.03-0.1,0.08-0.16c0-0.1,0-0.18,0-0.23c0-0.05,0-0.1,0-0.16
		c0-0.1,0-0.21,0-0.31c0-0.1,0-0.21,0-0.31c-0.05-1.77-0.46-3.39-1.21-4.88c-0.75-1.48-2.2-2.22-4.33-2.22
		c-2.29,0-3.78,0.75-4.49,2.24s-1.16,3.12-1.36,4.87c-0.05,0.26-0.09,0.49-0.12,0.7c-0.03,0.21-0.04,0.41-0.04,0.62h11.47
		C1819.79,1584.01,1819.79,1583.95,1819.79,1583.9z M1865.11,1582.73h-4.68c-0.52-2.03-1.53-3.72-3.04-5.07
		c-1.51-1.35-3.38-2.03-5.62-2.03c-0.16,0-0.33,0.01-0.51,0.04c-0.18,0.03-0.35,0.07-0.51,0.12c-0.57,0.16-1.09,0.42-1.56,0.78
		c-0.47,0.36-0.7,0.86-0.7,1.48c0,0.73,0.29,1.34,0.86,1.83c0.57,0.5,1.2,0.92,1.87,1.29c0.31,0.16,0.61,0.3,0.9,0.43
		c0.29,0.13,0.56,0.27,0.82,0.43c0.26,0.16,0.52,0.31,0.78,0.47c0.26,0.16,0.52,0.29,0.78,0.39c0.26,0.21,0.55,0.39,0.86,0.55
		c0.31,0.16,0.62,0.34,0.94,0.55c2.5,1.4,4.8,3.04,6.9,4.91c2.11,1.87,3.16,4.45,3.16,7.72c0,3.33-1.18,5.97-3.55,7.92
		c-2.37,1.95-5.14,3-8.31,3.16c-2.08,0-4.11-0.27-6.08-0.82c-1.98-0.55-3.72-1.55-5.23-3l-1.33,2.11h-4.99v-13.03h4.99
		c0.88,2.45,2.2,4.68,3.94,6.71c1.74,2.03,4.02,3.04,6.83,3.04c0.88,0,1.7-0.22,2.46-0.66c0.75-0.44,1.13-1.16,1.13-2.14
		c0-0.78-0.35-1.52-1.05-2.22c-0.7-0.7-1.6-1.39-2.69-2.07c-0.83-0.52-1.77-1.04-2.81-1.56c-1.04-0.52-2.08-1.07-3.12-1.64
		c-2.45-1.35-4.67-2.92-6.67-4.72c-2-1.79-3-4.04-3-6.75c0-3.22,1.26-5.8,3.78-7.72s5.29-2.89,8.31-2.89c1.82,0,3.63,0.22,5.42,0.66
		c1.79,0.44,3.5,1.05,5.11,1.83l0.94-2.57h4.68V1582.73z"/>
	<g>
		<linearGradient id="SVGID_6_" gradientUnits="userSpaceOnUse" x1="206.6391" y1="1525.4218" x2="1864.3558" y2="1525.4218">
			<stop  offset="0" style="stop-color:#C58C3F"/>
			<stop  offset="0.5" style="stop-color:#FBFACC"/>
			<stop  offset="1" style="stop-color:#C58C3E"/>
		</linearGradient>
		<path class="st3" d="M206.64,1525.42c138.14-1.86,276.29-2.84,414.43-3.5c69.07-0.41,138.14-0.51,207.21-0.75l207.21-0.25
			l207.21,0.24l103.61,0.32l103.61,0.43c138.14,0.66,276.29,1.64,414.43,3.51c-138.14,1.87-276.29,2.85-414.43,3.51l-103.61,0.43
			l-103.61,0.32l-207.21,0.24l-207.21-0.25c-69.07-0.24-138.14-0.34-207.21-0.75C482.93,1528.26,344.78,1527.28,206.64,1525.42z"/>
	</g>
</g>
</svg>
